<mxfile host="app.diagrams.net" modified="2021-09-09T09:37:55.634Z" agent="5.0 (Macintosh; Intel Mac OS X 10_15_6) AppleWebKit/537.36 (KHTML, like Gecko) Chrome/92.0.4515.159 Safari/537.36" etag="8ApCaye2prhKMRaUCBe-" version="14.9.7" type="github">
  <diagram id="CbattyjxQO_weUb3Ob1x" name="第 1 页">
    <mxGraphModel dx="2253" dy="749" grid="1" gridSize="10" guides="1" tooltips="1" connect="1" arrows="1" fold="1" page="1" pageScale="1" pageWidth="827" pageHeight="1169" math="0" shadow="0">
      <root>
        <mxCell id="0" />
        <mxCell id="1" parent="0" />
        <mxCell id="cJ9brOP8q45tNaZCvu3r-1" style="edgeStyle=none;rounded=0;orthogonalLoop=1;jettySize=auto;html=1;entryX=0.06;entryY=0.7;entryDx=0;entryDy=0;entryPerimeter=0;fontSize=12;fontColor=#000000;startArrow=none;startFill=0;strokeColor=#000000;" edge="1" parent="1" source="cJ9brOP8q45tNaZCvu3r-4" target="cJ9brOP8q45tNaZCvu3r-6">
          <mxGeometry relative="1" as="geometry" />
        </mxCell>
        <mxCell id="cJ9brOP8q45tNaZCvu3r-2" style="edgeStyle=none;rounded=0;orthogonalLoop=1;jettySize=auto;html=1;entryX=0;entryY=0.5;entryDx=0;entryDy=0;fontSize=12;fontColor=#000000;startArrow=none;startFill=0;strokeColor=#000000;" edge="1" parent="1" source="cJ9brOP8q45tNaZCvu3r-4" target="cJ9brOP8q45tNaZCvu3r-8">
          <mxGeometry relative="1" as="geometry" />
        </mxCell>
        <mxCell id="cJ9brOP8q45tNaZCvu3r-3" style="edgeStyle=none;rounded=0;orthogonalLoop=1;jettySize=auto;html=1;exitX=1;exitY=1;exitDx=0;exitDy=0;entryX=0;entryY=0.5;entryDx=0;entryDy=0;fontSize=12;fontColor=#000000;startArrow=none;startFill=0;strokeColor=#000000;" edge="1" parent="1" source="cJ9brOP8q45tNaZCvu3r-4" target="cJ9brOP8q45tNaZCvu3r-10">
          <mxGeometry relative="1" as="geometry" />
        </mxCell>
        <mxCell id="cJ9brOP8q45tNaZCvu3r-4" value="TW0" style="ellipse;whiteSpace=wrap;html=1;aspect=fixed;fontSize=12;align=center;verticalAlign=middle;" vertex="1" parent="1">
          <mxGeometry x="-619.25" y="160" width="50" height="50" as="geometry" />
        </mxCell>
        <mxCell id="cJ9brOP8q45tNaZCvu3r-5" style="edgeStyle=none;rounded=0;orthogonalLoop=1;jettySize=auto;html=1;exitX=1;exitY=0.5;exitDx=0;exitDy=0;entryX=0;entryY=0;entryDx=0;entryDy=0;fontSize=12;fontColor=#000000;startArrow=none;startFill=0;strokeColor=#000000;" edge="1" parent="1" source="cJ9brOP8q45tNaZCvu3r-6" target="cJ9brOP8q45tNaZCvu3r-24">
          <mxGeometry relative="1" as="geometry" />
        </mxCell>
        <mxCell id="cJ9brOP8q45tNaZCvu3r-6" value="PT0" style="ellipse;whiteSpace=wrap;html=1;aspect=fixed;fontSize=12;align=center;verticalAlign=middle;" vertex="1" parent="1">
          <mxGeometry x="-489.75" y="80" width="50" height="50" as="geometry" />
        </mxCell>
        <mxCell id="cJ9brOP8q45tNaZCvu3r-7" style="edgeStyle=none;rounded=0;orthogonalLoop=1;jettySize=auto;html=1;exitX=1;exitY=0.5;exitDx=0;exitDy=0;fontSize=12;fontColor=#000000;startArrow=none;startFill=0;strokeColor=#000000;" edge="1" parent="1" source="cJ9brOP8q45tNaZCvu3r-8" target="cJ9brOP8q45tNaZCvu3r-11">
          <mxGeometry relative="1" as="geometry" />
        </mxCell>
        <mxCell id="cJ9brOP8q45tNaZCvu3r-8" value="PT1" style="ellipse;whiteSpace=wrap;html=1;aspect=fixed;fontSize=12;align=center;verticalAlign=middle;" vertex="1" parent="1">
          <mxGeometry x="-489.75" y="160" width="50" height="50" as="geometry" />
        </mxCell>
        <mxCell id="cJ9brOP8q45tNaZCvu3r-9" style="edgeStyle=none;rounded=0;orthogonalLoop=1;jettySize=auto;html=1;entryX=0;entryY=0.5;entryDx=0;entryDy=0;fontSize=12;fontColor=#000000;startArrow=none;startFill=0;strokeColor=#000000;" edge="1" parent="1" source="cJ9brOP8q45tNaZCvu3r-10" target="cJ9brOP8q45tNaZCvu3r-24">
          <mxGeometry relative="1" as="geometry" />
        </mxCell>
        <mxCell id="cJ9brOP8q45tNaZCvu3r-10" value="PT2" style="ellipse;whiteSpace=wrap;html=1;aspect=fixed;fontSize=12;align=center;verticalAlign=middle;" vertex="1" parent="1">
          <mxGeometry x="-489.75" y="240" width="50" height="50" as="geometry" />
        </mxCell>
        <mxCell id="cJ9brOP8q45tNaZCvu3r-11" value="SD1" style="ellipse;whiteSpace=wrap;html=1;aspect=fixed;fontSize=12;align=center;verticalAlign=middle;" vertex="1" parent="1">
          <mxGeometry x="-229.75" y="270" width="50" height="50" as="geometry" />
        </mxCell>
        <mxCell id="cJ9brOP8q45tNaZCvu3r-12" value="SD2" style="ellipse;whiteSpace=wrap;html=1;aspect=fixed;fontSize=12;align=center;verticalAlign=middle;" vertex="1" parent="1">
          <mxGeometry x="-229.75" y="350" width="50" height="50" as="geometry" />
        </mxCell>
        <mxCell id="cJ9brOP8q45tNaZCvu3r-13" value="SD3" style="ellipse;whiteSpace=wrap;html=1;aspect=fixed;fontSize=12;align=center;verticalAlign=middle;" vertex="1" parent="1">
          <mxGeometry x="-229.75" y="430" width="50" height="50" as="geometry" />
        </mxCell>
        <mxCell id="cJ9brOP8q45tNaZCvu3r-14" style="edgeStyle=none;rounded=0;orthogonalLoop=1;jettySize=auto;html=1;entryX=0.06;entryY=0.7;entryDx=0;entryDy=0;entryPerimeter=0;fontSize=12;fontColor=#000000;startArrow=none;startFill=0;strokeColor=#000000;" edge="1" parent="1" source="cJ9brOP8q45tNaZCvu3r-17" target="cJ9brOP8q45tNaZCvu3r-19">
          <mxGeometry relative="1" as="geometry" />
        </mxCell>
        <mxCell id="cJ9brOP8q45tNaZCvu3r-15" style="edgeStyle=none;rounded=0;orthogonalLoop=1;jettySize=auto;html=1;entryX=0;entryY=0.5;entryDx=0;entryDy=0;fontSize=12;fontColor=#000000;startArrow=none;startFill=0;strokeColor=#000000;" edge="1" parent="1" source="cJ9brOP8q45tNaZCvu3r-17" target="cJ9brOP8q45tNaZCvu3r-21">
          <mxGeometry relative="1" as="geometry" />
        </mxCell>
        <mxCell id="cJ9brOP8q45tNaZCvu3r-16" style="edgeStyle=none;rounded=0;orthogonalLoop=1;jettySize=auto;html=1;exitX=1;exitY=1;exitDx=0;exitDy=0;entryX=0;entryY=0.5;entryDx=0;entryDy=0;fontSize=12;fontColor=#000000;startArrow=none;startFill=0;strokeColor=#000000;" edge="1" parent="1" source="cJ9brOP8q45tNaZCvu3r-17" target="cJ9brOP8q45tNaZCvu3r-23">
          <mxGeometry relative="1" as="geometry" />
        </mxCell>
        <mxCell id="cJ9brOP8q45tNaZCvu3r-17" value="TW1" style="ellipse;whiteSpace=wrap;html=1;aspect=fixed;fontSize=12;align=center;verticalAlign=middle;" vertex="1" parent="1">
          <mxGeometry x="-619.25" y="410" width="50" height="50" as="geometry" />
        </mxCell>
        <mxCell id="cJ9brOP8q45tNaZCvu3r-18" style="edgeStyle=none;rounded=0;orthogonalLoop=1;jettySize=auto;html=1;exitX=1;exitY=0.5;exitDx=0;exitDy=0;entryX=0;entryY=0.5;entryDx=0;entryDy=0;fontSize=12;fontColor=#000000;startArrow=none;startFill=0;strokeColor=#000000;" edge="1" parent="1" source="cJ9brOP8q45tNaZCvu3r-19" target="cJ9brOP8q45tNaZCvu3r-12">
          <mxGeometry relative="1" as="geometry" />
        </mxCell>
        <mxCell id="cJ9brOP8q45tNaZCvu3r-19" value="PT0" style="ellipse;whiteSpace=wrap;html=1;aspect=fixed;fontSize=12;align=center;verticalAlign=middle;" vertex="1" parent="1">
          <mxGeometry x="-489.75" y="330" width="50" height="50" as="geometry" />
        </mxCell>
        <mxCell id="cJ9brOP8q45tNaZCvu3r-20" style="edgeStyle=none;rounded=0;orthogonalLoop=1;jettySize=auto;html=1;exitX=1;exitY=0.5;exitDx=0;exitDy=0;entryX=0;entryY=0.8;entryDx=0;entryDy=0;entryPerimeter=0;fontSize=12;fontColor=#000000;startArrow=none;startFill=0;strokeColor=#000000;" edge="1" parent="1" source="cJ9brOP8q45tNaZCvu3r-21" target="cJ9brOP8q45tNaZCvu3r-11">
          <mxGeometry relative="1" as="geometry" />
        </mxCell>
        <mxCell id="cJ9brOP8q45tNaZCvu3r-21" value="PT1" style="ellipse;whiteSpace=wrap;html=1;aspect=fixed;fontSize=12;align=center;verticalAlign=middle;" vertex="1" parent="1">
          <mxGeometry x="-489.75" y="410" width="50" height="50" as="geometry" />
        </mxCell>
        <mxCell id="cJ9brOP8q45tNaZCvu3r-22" style="edgeStyle=none;rounded=0;orthogonalLoop=1;jettySize=auto;html=1;exitX=1;exitY=0.5;exitDx=0;exitDy=0;entryX=0;entryY=0.5;entryDx=0;entryDy=0;fontSize=12;fontColor=#000000;startArrow=none;startFill=0;strokeColor=#000000;" edge="1" parent="1" source="cJ9brOP8q45tNaZCvu3r-23" target="cJ9brOP8q45tNaZCvu3r-13">
          <mxGeometry relative="1" as="geometry" />
        </mxCell>
        <mxCell id="cJ9brOP8q45tNaZCvu3r-23" value="PT2" style="ellipse;whiteSpace=wrap;html=1;aspect=fixed;fontSize=12;align=center;verticalAlign=middle;" vertex="1" parent="1">
          <mxGeometry x="-489.75" y="490" width="50" height="50" as="geometry" />
        </mxCell>
        <mxCell id="cJ9brOP8q45tNaZCvu3r-24" value="SD0" style="ellipse;whiteSpace=wrap;html=1;aspect=fixed;fontSize=12;align=center;verticalAlign=middle;" vertex="1" parent="1">
          <mxGeometry x="-229.75" y="190" width="50" height="50" as="geometry" />
        </mxCell>
        <mxCell id="cJ9brOP8q45tNaZCvu3r-25" value="TimeWheel、Partition、Sigmad三者之间的关系图：" style="text;html=1;strokeColor=none;fillColor=none;align=center;verticalAlign=middle;whiteSpace=wrap;rounded=0;fontSize=18;fontColor=#000000;fontStyle=1" vertex="1" parent="1">
          <mxGeometry x="-820" width="460.25" height="50" as="geometry" />
        </mxCell>
      </root>
    </mxGraphModel>
  </diagram>
</mxfile>
